<svg version="1.1" id="Layer_1" xmlns="http://www.w3.org/2000/svg" xmlns:xlink="http://www.w3.org/1999/xlink" x="0px" y="0px"
	 width="100%" viewBox="0 0 1490 1286" enable-background="new 0 0 1490 1286" xml:space="preserve">
<path fill="#8E94A2" opacity="1.000000" stroke="none" 
	d="
M1.000000,2.000000 
	C1.166667,1.666667 1.315919,1.056198 1.502793,1.044456 
	C2.830883,0.961004 4.166667,1.000000 5.500000,1.000000 
	C500.666656,1.000000 995.833313,1.000000 1490.722046,1.535160 
	C1490.259033,2.095448 1490.073975,2.120577 1489.451172,2.084968 
	C1488.180298,2.016064 1487.347168,2.000740 1486.513916,2.000738 
	C993.209900,1.999282 499.905884,1.998729 6.601876,2.004470 
	C5.104902,2.004487 3.607929,2.096285 1.833326,2.108072 
	C1.370465,2.047286 1.185232,2.023643 1.000000,2.000000 
z"/>
<path fill="#C6C9D0" opacity="1.000000" stroke="none" 
	d="
M1491.000000,1286.000000 
	C1490.833374,1286.333374 1490.684204,1286.943848 1490.497192,1286.955688 
	C1489.169067,1287.039062 1487.833374,1287.000000 1486.500000,1287.000000 
	C991.333313,1287.000000 496.166656,1287.000000 1.270284,1286.472290 
	C1.718281,1285.909424 1.895994,1285.874390 2.515211,1285.909180 
	C3.623237,1285.985962 4.289760,1285.999268 4.956282,1285.999268 
	C498.449707,1286.000122 991.943115,1286.000366 1485.436523,1285.993530 
	C1486.932739,1285.993530 1488.428955,1285.892334 1490.192139,1285.890381 
	C1490.639526,1285.961792 1490.819824,1285.980957 1491.000000,1286.000000 
z"/>
<path fill="#565E73" opacity="1.000000" stroke="none" 
	d="
M2.073706,1285.839478 
	C1.895994,1285.874390 1.718281,1285.909424 1.270284,1285.972290 
	C1.000000,858.300598 1.000000,430.601196 1.000000,2.450905 
	C1.185232,2.023643 1.370465,2.047286 1.788411,2.541753 
	C2.013681,4.512347 1.999715,6.012119 1.999713,7.511890 
	C1.999127,430.122253 1.999313,852.732666 2.002922,1275.343018 
	C2.002952,1278.841797 2.049093,1282.340698 2.073706,1285.839478 
z"/>
<path fill="#565E73" opacity="1.000000" stroke="none" 
	d="
M1491.000000,1285.549072 
	C1490.819824,1285.980957 1490.639526,1285.961792 1490.221436,1285.454834 
	C1489.989014,1282.967651 1489.999268,1280.967896 1489.999268,1278.968262 
	C1490.000000,856.692017 1490.000244,434.415802 1489.995361,12.139586 
	C1489.995361,8.808292 1489.925903,5.476999 1489.888916,2.145705 
	C1490.073975,2.120577 1490.259033,2.095448 1490.722046,2.035160 
	C1491.000000,429.699371 1491.000000,857.398743 1491.000000,1285.549072 
z"/>
<path fill="#1E2945" opacity="1.000000" stroke="none" 
	d="
M1489.451172,2.084968 
	C1489.925903,5.476999 1489.995361,8.808292 1489.995361,12.139586 
	C1490.000244,434.415802 1490.000000,856.692017 1489.999268,1278.968262 
	C1489.999268,1280.967896 1489.989014,1282.967651 1489.954346,1285.402832 
	C1488.428955,1285.892334 1486.932739,1285.993530 1485.436523,1285.993530 
	C991.943115,1286.000366 498.449707,1286.000122 4.956282,1285.999268 
	C4.289760,1285.999268 3.623237,1285.985962 2.515211,1285.909180 
	C2.049093,1282.340698 2.002952,1278.841797 2.002922,1275.343018 
	C1.999313,852.732666 1.999127,430.122253 1.999713,7.511890 
	C1.999715,6.012119 2.013681,4.512347 2.066041,2.578896 
	C3.607929,2.096285 5.104902,2.004487 6.601876,2.004470 
	C499.905884,1.998729 993.209900,1.999282 1486.513916,2.000738 
	C1487.347168,2.000740 1488.180298,2.016064 1489.451172,2.084968 
M524.154175,558.388306 
	C524.154175,560.495911 524.154175,562.603577 524.154175,565.162109 
	C526.620056,565.162109 528.421204,565.162048 530.222351,565.162048 
	C554.883972,565.161987 579.546509,565.290833 604.206909,565.121399 
	C624.284912,564.983459 643.193787,569.470398 660.823364,578.969177 
	C685.994812,592.531433 704.692993,611.574402 712.544250,640.015991 
	C716.568176,654.593018 721.457703,668.933899 726.062805,683.347351 
	C749.182129,755.708008 816.780396,806.263428 890.917725,806.526672 
	C928.076355,806.658691 965.235840,806.555115 1002.394897,806.537170 
	C1004.135925,806.536316 1005.876831,806.330872 1007.522461,806.226807 
	C1007.522461,779.172058 1007.522461,752.746338 1007.522461,725.838074 
	C1005.238342,725.838074 1003.274353,725.838135 1001.310425,725.838074 
	C966.150940,725.837463 930.991455,725.837646 895.831970,725.835938 
	C852.403320,725.833862 815.819702,698.934998 802.712952,657.512939 
	C796.442749,637.696899 791.054016,617.512390 783.378113,598.246948 
	C757.276306,532.734985 683.849365,484.658539 611.031067,484.460785 
	C584.036865,484.387482 557.042175,484.449127 530.047729,484.449219 
	C528.259460,484.449219 526.471130,484.449219 524.153992,484.449219 
	C524.153992,509.181091 524.153992,533.296143 524.154175,558.388306 
M907.500122,484.450287 
	C899.837097,484.450104 892.171692,484.323364 884.511536,484.471832 
	C852.241516,485.097382 828.225647,499.707520 812.581726,527.780151 
	C806.271484,539.104004 803.357239,551.492676 803.601318,564.753784 
	C871.820496,564.753784 939.642151,564.753784 1007.577148,564.753784 
	C1007.577148,537.930908 1007.577148,511.518341 1007.577148,484.450745 
	C974.374939,484.450745 941.437561,484.450745 907.500122,484.450287 
M695.832947,781.334412 
	C710.203979,765.807190 717.532166,747.547546 717.805298,726.184753 
	C652.997620,726.184753 588.814026,726.184753 524.536621,726.184753 
	C524.536621,753.058044 524.536621,779.579468 524.536621,806.552246 
	C526.884033,806.552246 528.857910,806.552246 530.831787,806.552246 
	C565.808228,806.552490 600.784668,806.507324 635.761047,806.568970 
	C659.090576,806.610107 678.976257,798.504395 695.832947,781.334412 
M439.288879,808.000916 
	C440.119781,808.040161 440.950348,808.104370 441.781616,808.114990 
	C459.254028,808.338745 472.463654,800.791016 480.215240,785.265991 
	C487.774536,770.126160 486.270996,754.995483 475.799713,741.657349 
	C465.206116,728.163513 450.852570,723.242004 434.030304,726.917847 
	C414.576904,731.168640 401.371826,748.861206 402.145538,768.989624 
	C402.906189,788.777771 417.603851,804.557373 439.288879,808.000916 
z"/>
<path fill="#FB7F3F" opacity="1.000000" stroke="none" 
	d="
M524.154053,557.899780 
	C524.153992,533.296143 524.153992,509.181091 524.153992,484.449219 
	C526.471130,484.449219 528.259460,484.449219 530.047729,484.449219 
	C557.042175,484.449127 584.036865,484.387482 611.031067,484.460785 
	C683.849365,484.658539 757.276306,532.734985 783.378113,598.246948 
	C791.054016,617.512390 796.442749,637.696899 802.712952,657.512939 
	C815.819702,698.934998 852.403320,725.833862 895.831970,725.835938 
	C930.991455,725.837646 966.150940,725.837463 1001.310425,725.838074 
	C1003.274353,725.838135 1005.238342,725.838074 1007.522461,725.838074 
	C1007.522461,752.746338 1007.522461,779.172058 1007.522461,806.226807 
	C1005.876831,806.330872 1004.135925,806.536316 1002.394897,806.537170 
	C965.235840,806.555115 928.076355,806.658691 890.917725,806.526672 
	C816.780396,806.263428 749.182129,755.708008 726.062805,683.347351 
	C721.457703,668.933899 716.568176,654.593018 712.544250,640.015991 
	C704.692993,611.574402 685.994812,592.531433 660.823364,578.969177 
	C643.193787,569.470398 624.284912,564.983459 604.206909,565.121399 
	C579.546509,565.290833 554.883972,565.161987 530.222351,565.162048 
	C528.421204,565.162048 526.620056,565.162109 524.154175,565.162109 
	C524.154175,562.603577 524.154175,560.495911 524.154053,557.899780 
z"/>
<path fill="#FB7F3F" opacity="1.000000" stroke="none" 
	d="
M908.000122,484.450500 
	C941.437561,484.450745 974.374939,484.450745 1007.577148,484.450745 
	C1007.577148,511.518341 1007.577148,537.930908 1007.577148,564.753784 
	C939.642151,564.753784 871.820496,564.753784 803.601318,564.753784 
	C803.357239,551.492676 806.271484,539.104004 812.581726,527.780151 
	C828.225647,499.707520 852.241516,485.097382 884.511536,484.471832 
	C892.171692,484.323364 899.837097,484.450104 908.000122,484.450500 
z"/>
<path fill="#FB7E3F" opacity="1.000000" stroke="none" 
	d="
M695.584351,781.583496 
	C678.976257,798.504395 659.090576,806.610107 635.761047,806.568970 
	C600.784668,806.507324 565.808228,806.552490 530.831787,806.552246 
	C528.857910,806.552246 526.884033,806.552246 524.536621,806.552246 
	C524.536621,779.579468 524.536621,753.058044 524.536621,726.184753 
	C588.814026,726.184753 652.997620,726.184753 717.805298,726.184753 
	C717.532166,747.547546 710.203979,765.807190 695.584351,781.583496 
z"/>
<path fill="#F57D3F" opacity="1.000000" stroke="none" 
	d="
M438.866760,807.980835 
	C417.603851,804.557373 402.906189,788.777771 402.145538,768.989624 
	C401.371826,748.861206 414.576904,731.168640 434.030304,726.917847 
	C450.852570,723.242004 465.206116,728.163513 475.799713,741.657349 
	C486.270996,754.995483 487.774536,770.126160 480.215240,785.265991 
	C472.463654,800.791016 459.254028,808.338745 441.781616,808.114990 
	C440.950348,808.104370 440.119781,808.040161 438.866760,807.980835 
M423.831635,740.278625 
	C423.056305,740.906311 422.245850,741.495483 421.510956,742.167419 
	C411.359192,751.449402 407.822632,767.351379 413.150391,779.697327 
	C418.889648,792.996826 431.505646,801.191162 444.895630,800.316284 
	C459.104767,799.388000 470.839539,790.003235 474.824799,776.380981 
	C478.726410,763.044495 473.739655,748.291443 462.525085,739.993103 
	C451.043732,731.497314 437.084045,731.452271 423.831635,740.278625 
z"/>
<path fill="#1E2945" opacity="1.000000" stroke="none" 
	d="
M424.130768,740.074341 
	C437.084045,731.452271 451.043732,731.497314 462.525085,739.993103 
	C473.739655,748.291443 478.726410,763.044495 474.824799,776.380981 
	C470.839539,790.003235 459.104767,799.388000 444.895630,800.316284 
	C431.505646,801.191162 418.889648,792.996826 413.150391,779.697327 
	C407.822632,767.351379 411.359192,751.449402 421.510956,742.167419 
	C422.245850,741.495483 423.056305,740.906311 424.130768,740.074341 
M455.235016,790.897644 
	C457.936676,790.897644 460.638336,790.897644 464.081604,790.897644 
	C459.340607,783.592651 455.125336,777.097778 450.769836,770.386780 
	C451.976471,769.926208 452.742188,769.627930 453.512177,769.341064 
	C460.515594,766.731995 463.323242,762.122986 462.465942,754.638428 
	C461.701538,747.964783 457.947876,743.847839 450.655701,743.300476 
	C443.253082,742.744812 435.776215,743.177795 428.153564,743.177795 
	C428.153564,759.233826 428.153564,774.941956 428.153564,790.663940 
	C430.714294,790.663940 432.936249,790.663940 435.741211,790.663940 
	C435.741211,783.745850 435.741211,777.161865 435.741211,770.577881 
	C436.184387,770.199280 436.627563,769.820679 437.070740,769.442017 
	C438.993011,770.683899 441.462738,771.520569 442.736877,773.242126 
	C446.890015,778.853516 450.606598,784.787964 455.235016,790.897644 
z"/>
<path fill="#F57D3F" opacity="1.000000" stroke="none" 
	d="
M454.863098,790.747925 
	C450.606598,784.787964 446.890015,778.853516 442.736877,773.242126 
	C441.462738,771.520569 438.993011,770.683899 437.070740,769.442017 
	C436.627563,769.820679 436.184387,770.199280 435.741211,770.577881 
	C435.741211,777.161865 435.741211,783.745850 435.741211,790.663940 
	C432.936249,790.663940 430.714294,790.663940 428.153564,790.663940 
	C428.153564,774.941956 428.153564,759.233826 428.153564,743.177795 
	C435.776215,743.177795 443.253082,742.744812 450.655701,743.300476 
	C457.947876,743.847839 461.701538,747.964783 462.465942,754.638428 
	C463.323242,762.122986 460.515594,766.731995 453.512177,769.341064 
	C452.742188,769.627930 451.976471,769.926208 450.769836,770.386780 
	C455.125336,777.097778 459.340607,783.592651 464.081604,790.897644 
	C460.638336,790.897644 457.936676,790.897644 454.863098,790.747925 
M454.123016,753.489319 
	C448.895599,747.414612 442.110504,751.024414 435.840393,749.963440 
	C435.840393,754.638245 435.840393,758.701416 435.840393,763.139709 
	C438.515320,763.139709 440.828857,763.162415 443.141663,763.131470 
	C444.639069,763.111450 446.149475,763.121643 447.629761,762.930359 
	C453.161865,762.215393 454.929382,759.909668 454.123016,753.489319 
z"/>
<path fill="#1E2945" opacity="1.000000" stroke="none" 
	d="
M454.285950,753.838684 
	C454.929382,759.909668 453.161865,762.215393 447.629761,762.930359 
	C446.149475,763.121643 444.639069,763.111450 443.141663,763.131470 
	C440.828857,763.162415 438.515320,763.139709 435.840393,763.139709 
	C435.840393,758.701416 435.840393,754.638245 435.840393,749.963440 
	C442.110504,751.024414 448.895599,747.414612 454.285950,753.838684 
z"/>
</svg>